%FSLAX44Y44*%
%MOMM*%
G71*
G01*
G75*
G04 Layer_Color=8388736*
%ADD10O,2.4032X0.8032*%
%ADD11R,1.6532X0.7532*%
%ADD12R,1.7032X1.3032*%
%ADD13O,1.7032X0.8032*%
%ADD14R,1.3032X1.7032*%
%ADD15R,2.0032X2.0032*%
%ADD16C,2.0032*%
%ADD17P,2.1683X8X292.5*%
D10*
X793620Y934720D02*
D03*
Y947420D02*
D03*
Y960120D02*
D03*
Y972820D02*
D03*
X745620Y934720D02*
D03*
Y947420D02*
D03*
Y960120D02*
D03*
Y972820D02*
D03*
D11*
X823910Y1007110D02*
D03*
X847410D02*
D03*
D12*
X708660Y1027270D02*
D03*
Y1007270D02*
D03*
X679450Y1027270D02*
D03*
Y1007270D02*
D03*
X756920Y1027270D02*
D03*
Y1007270D02*
D03*
X784860Y1027270D02*
D03*
Y1007270D02*
D03*
X648970D02*
D03*
Y1027270D02*
D03*
X869950Y802800D02*
D03*
Y822800D02*
D03*
X796290Y802800D02*
D03*
Y822800D02*
D03*
D13*
X679840Y883920D02*
D03*
Y896620D02*
D03*
Y909320D02*
D03*
Y922020D02*
D03*
Y934720D02*
D03*
Y947420D02*
D03*
Y960120D02*
D03*
Y972820D02*
D03*
X624840Y883920D02*
D03*
Y896620D02*
D03*
Y909320D02*
D03*
Y922020D02*
D03*
Y934720D02*
D03*
Y947420D02*
D03*
Y960120D02*
D03*
Y972820D02*
D03*
D14*
X573880Y949537D02*
D03*
X553880D02*
D03*
X573880Y985520D02*
D03*
X553880D02*
D03*
Y913553D02*
D03*
X573880D02*
D03*
Y877570D02*
D03*
X553880D02*
D03*
D15*
X847090Y958850D02*
D03*
X758190Y797560D02*
D03*
X833120D02*
D03*
D16*
X847090Y933450D02*
D03*
X664210Y820420D02*
D03*
Y795020D02*
D03*
X638810Y845820D02*
D03*
Y820420D02*
D03*
Y795020D02*
D03*
X758190Y873760D02*
D03*
Y848360D02*
D03*
Y822960D02*
D03*
X833120Y873760D02*
D03*
Y848360D02*
D03*
Y822960D02*
D03*
D17*
X664210Y845820D02*
D03*
M02*
