%FSLAX44Y44*%
%MOMM*%
G71*
G01*
G75*
G04 Layer_Physical_Order=1*
G04 Layer_Color=255*
%ADD10O,2.2000X0.6000*%
%ADD11R,1.4500X0.5500*%
%ADD12R,1.5000X1.1000*%
%ADD13O,1.5000X0.6000*%
%ADD14R,1.1000X1.5000*%
%ADD15C,0.5000*%
%ADD16C,0.8000*%
%ADD17C,1.0000*%
%ADD18C,0.3000*%
%ADD19R,1.8000X1.8000*%
%ADD20C,1.8000*%
%ADD21P,1.9483X8X292.5*%
G36*
X890881Y779119D02*
X525119D01*
Y1044881D01*
X890881D01*
Y779119D01*
D02*
G37*
%LPC*%
G36*
X684340Y902269D02*
X675340D01*
X673178Y901839D01*
X671346Y900614D01*
X670121Y898782D01*
X669691Y896620D01*
X670121Y894458D01*
X671346Y892626D01*
X673178Y891401D01*
X675340Y890972D01*
X684340D01*
X686502Y891401D01*
X686621Y891481D01*
X706532D01*
X727886Y870126D01*
X729554Y869012D01*
X731520Y868621D01*
X747828D01*
X748110Y867940D01*
X749960Y865530D01*
X752370Y863680D01*
X755178Y862517D01*
X758190Y862121D01*
X761202Y862517D01*
X764010Y863680D01*
X766420Y865530D01*
X768270Y867940D01*
X769433Y870748D01*
X769829Y873760D01*
X769433Y876773D01*
X768270Y879580D01*
X766420Y881990D01*
X764010Y883840D01*
X761202Y885003D01*
X758190Y885399D01*
X755178Y885003D01*
X752370Y883840D01*
X749960Y881990D01*
X748110Y879580D01*
X747828Y878899D01*
X733649D01*
X712294Y900254D01*
X710627Y901368D01*
X708660Y901759D01*
X686621D01*
X686502Y901839D01*
X684340Y902269D01*
D02*
G37*
G36*
Y914968D02*
X675340D01*
X673178Y914539D01*
X671346Y913314D01*
X670121Y911482D01*
X669691Y909320D01*
X670121Y907158D01*
X671346Y905326D01*
X673178Y904101D01*
X675340Y903671D01*
X684340D01*
X686502Y904101D01*
X686621Y904181D01*
X716692D01*
X727886Y892986D01*
X729554Y891872D01*
X731520Y891481D01*
X768762D01*
X790116Y870126D01*
X791784Y869012D01*
X793750Y868621D01*
X822758D01*
X823040Y867940D01*
X824890Y865530D01*
X827300Y863680D01*
X830107Y862517D01*
X833120Y862121D01*
X836133Y862517D01*
X838940Y863680D01*
X841350Y865530D01*
X843200Y867940D01*
X844363Y870748D01*
X844760Y873760D01*
X844363Y876773D01*
X843200Y879580D01*
X841350Y881990D01*
X838940Y883840D01*
X836133Y885003D01*
X833120Y885399D01*
X830107Y885003D01*
X827300Y883840D01*
X824890Y881990D01*
X823040Y879580D01*
X822758Y878899D01*
X795879D01*
X774524Y900254D01*
X772857Y901368D01*
X770890Y901759D01*
X733649D01*
X722454Y912954D01*
X720787Y914068D01*
X718820Y914459D01*
X686621D01*
X686502Y914539D01*
X684340Y914968D01*
D02*
G37*
G36*
X629340D02*
X620340D01*
X618178Y914539D01*
X618059Y914459D01*
X615950D01*
X613983Y914068D01*
X612316Y912954D01*
X583093Y883731D01*
X581920Y884217D01*
Y887610D01*
X565840D01*
Y867530D01*
X581920D01*
Y872431D01*
X584200D01*
X586166Y872822D01*
X587834Y873936D01*
X618071Y904173D01*
X618178Y904101D01*
X620340Y903671D01*
X629340D01*
X631502Y904101D01*
X633334Y905326D01*
X634558Y907158D01*
X634989Y909320D01*
X634558Y911482D01*
X633334Y913314D01*
X631502Y914539D01*
X629340Y914968D01*
D02*
G37*
G36*
X684340Y927669D02*
X675340D01*
X673178Y927239D01*
X671346Y926014D01*
X670121Y924182D01*
X669691Y922020D01*
X670121Y919858D01*
X671346Y918026D01*
X673178Y916801D01*
X675340Y916372D01*
X684340D01*
X686502Y916801D01*
X686621Y916881D01*
X724312D01*
X734236Y906956D01*
X735903Y905842D01*
X737870Y905451D01*
X829722D01*
X849571Y885602D01*
Y855568D01*
X847502Y853499D01*
X843482D01*
X843200Y854180D01*
X841350Y856590D01*
X838940Y858440D01*
X836133Y859603D01*
X833120Y859999D01*
X830107Y859603D01*
X827300Y858440D01*
X824890Y856590D01*
X823040Y854180D01*
X821877Y851373D01*
X821480Y848360D01*
X821877Y845348D01*
X823040Y842540D01*
X824890Y840130D01*
X827300Y838280D01*
X830107Y837117D01*
X833120Y836720D01*
X836133Y837117D01*
X838940Y838280D01*
X841350Y840130D01*
X843200Y842540D01*
X843482Y843221D01*
X849630D01*
X851597Y843612D01*
X853264Y844726D01*
X858344Y849806D01*
X859458Y851473D01*
X859849Y853440D01*
Y887730D01*
X859458Y889697D01*
X858344Y891364D01*
X835484Y914224D01*
X833817Y915338D01*
X831850Y915729D01*
X739998D01*
X730074Y925654D01*
X728407Y926768D01*
X726440Y927159D01*
X686621D01*
X686502Y927239D01*
X684340Y927669D01*
D02*
G37*
G36*
X588132Y830714D02*
X530400D01*
Y792975D01*
X588132D01*
Y830714D01*
D02*
G37*
G36*
X859790Y1041646D02*
X834390D01*
X832683Y1041422D01*
X831092Y1040763D01*
X829726Y1039714D01*
X819246Y1029234D01*
X818197Y1027868D01*
X817538Y1026277D01*
X817314Y1024570D01*
Y1013706D01*
X794900D01*
Y1015310D01*
X774820D01*
Y1013706D01*
X766960D01*
Y1015310D01*
X746880D01*
Y999230D01*
X766960D01*
Y1000514D01*
X774820D01*
Y999230D01*
X787024D01*
Y978468D01*
X785620D01*
X783458Y978039D01*
X781626Y976814D01*
X780401Y974982D01*
X779971Y972820D01*
X780401Y970658D01*
X781626Y968826D01*
X783458Y967601D01*
X785620Y967171D01*
X790238D01*
X790322Y967107D01*
X791913Y966448D01*
X793620Y966224D01*
X795327Y966448D01*
X796918Y967107D01*
X797002Y967171D01*
X801620D01*
X803782Y967601D01*
X805614Y968826D01*
X806839Y970658D01*
X807269Y972820D01*
X806839Y974982D01*
X805614Y976814D01*
X803782Y978039D01*
X801620Y978468D01*
X800216D01*
Y1000514D01*
X823910D01*
X825617Y1000738D01*
X827208Y1001397D01*
X827759Y1001820D01*
X833700D01*
Y1012400D01*
X830506D01*
Y1021838D01*
X837122Y1028454D01*
X857058D01*
X874784Y1010728D01*
Y836962D01*
X868661Y830840D01*
X859910D01*
Y829396D01*
X842727D01*
X841350Y831190D01*
X838940Y833040D01*
X836133Y834203D01*
X833120Y834600D01*
X830107Y834203D01*
X827300Y833040D01*
X824890Y831190D01*
X823513Y829396D01*
X806330D01*
Y830840D01*
X786250D01*
Y829396D01*
X767797D01*
X766420Y831190D01*
X764010Y833040D01*
X761202Y834203D01*
X758190Y834600D01*
X755178Y834203D01*
X752370Y833040D01*
X749960Y831190D01*
X748110Y828780D01*
X746947Y825973D01*
X746551Y822960D01*
X746947Y819948D01*
X748110Y817140D01*
X749960Y814730D01*
X752370Y812880D01*
X755178Y811717D01*
X758190Y811320D01*
X761202Y811717D01*
X764010Y812880D01*
X766420Y814730D01*
X767551Y816204D01*
X786250D01*
Y814760D01*
X806330D01*
Y816204D01*
X823759D01*
X824890Y814730D01*
X827300Y812880D01*
X830107Y811717D01*
X833120Y811320D01*
X836133Y811717D01*
X838940Y812880D01*
X841350Y814730D01*
X842481Y816204D01*
X859910D01*
Y814760D01*
X879990D01*
Y823511D01*
X886044Y829566D01*
X887093Y830932D01*
X887752Y832523D01*
X887976Y834230D01*
Y1013460D01*
X887752Y1015167D01*
X887093Y1016758D01*
X886044Y1018124D01*
X864454Y1039714D01*
X863088Y1040763D01*
X861497Y1041422D01*
X859790Y1041646D01*
D02*
G37*
G36*
X684340Y889568D02*
X675340D01*
X673178Y889139D01*
X671346Y887914D01*
X670121Y886082D01*
X669691Y883920D01*
X670121Y881758D01*
X671346Y879926D01*
X673178Y878701D01*
X675340Y878271D01*
X684340D01*
X686502Y878701D01*
X686621Y878781D01*
X691292D01*
X725346Y844726D01*
X727013Y843612D01*
X728980Y843221D01*
X747828D01*
X748110Y842540D01*
X749960Y840130D01*
X752370Y838280D01*
X755178Y837117D01*
X758190Y836720D01*
X761202Y837117D01*
X764010Y838280D01*
X766420Y840130D01*
X768270Y842540D01*
X769433Y845348D01*
X769829Y848360D01*
X769433Y851373D01*
X768270Y854180D01*
X766420Y856590D01*
X764010Y858440D01*
X761202Y859603D01*
X758190Y859999D01*
X755178Y859603D01*
X752370Y858440D01*
X749960Y856590D01*
X748110Y854180D01*
X747828Y853499D01*
X731108D01*
X697054Y887554D01*
X695387Y888668D01*
X693420Y889059D01*
X686621D01*
X686502Y889139D01*
X684340Y889568D01*
D02*
G37*
G36*
X629340Y940368D02*
X620340D01*
X618178Y939939D01*
X618059Y939859D01*
X600710D01*
X598744Y939468D01*
X597076Y938354D01*
X593502Y934779D01*
X561340D01*
X559374Y934388D01*
X557706Y933274D01*
X550246Y925814D01*
X549132Y924146D01*
X549022Y923593D01*
X545840D01*
Y903513D01*
X561920D01*
Y922953D01*
X563469Y924501D01*
X565840D01*
Y923593D01*
X565840D01*
Y903513D01*
X581920D01*
Y908415D01*
X599863D01*
X601830Y908806D01*
X603497Y909920D01*
X610458Y916881D01*
X618059D01*
X618178Y916801D01*
X620340Y916372D01*
X629340D01*
X631502Y916801D01*
X633334Y918026D01*
X634558Y919858D01*
X634989Y922020D01*
X634558Y924182D01*
X633334Y926014D01*
X631502Y927239D01*
X629340Y927669D01*
X620340D01*
X618178Y927239D01*
X618059Y927159D01*
X608330D01*
X606363Y926768D01*
X605810Y926398D01*
X604696Y925654D01*
X597735Y918692D01*
X581920D01*
Y923593D01*
X581920D01*
Y923603D01*
X582818Y924501D01*
X595630D01*
X597597Y924892D01*
X599264Y926006D01*
X602839Y929581D01*
X618059D01*
X618178Y929501D01*
X620340Y929072D01*
X629340D01*
X631502Y929501D01*
X633334Y930726D01*
X634558Y932558D01*
X634989Y934720D01*
X634558Y936882D01*
X633334Y938714D01*
X631502Y939939D01*
X629340Y940368D01*
D02*
G37*
G36*
X581920Y995560D02*
X565840D01*
Y975480D01*
X581920D01*
Y980381D01*
X634142D01*
X640021Y974501D01*
Y969868D01*
X635411Y965259D01*
X631621D01*
X631502Y965339D01*
X629340Y965769D01*
X620340D01*
X618178Y965339D01*
X616346Y964114D01*
X615121Y962282D01*
X614692Y960120D01*
X615121Y957958D01*
X616346Y956126D01*
X618178Y954901D01*
X620340Y954472D01*
X629340D01*
X631502Y954901D01*
X631621Y954981D01*
X637540D01*
X639506Y955372D01*
X641174Y956486D01*
X648794Y964106D01*
X649908Y965773D01*
X650299Y967740D01*
Y976630D01*
X649908Y978596D01*
X648794Y980264D01*
X639904Y989154D01*
X638237Y990267D01*
X636270Y990659D01*
X581920D01*
Y995560D01*
D02*
G37*
G36*
X847410Y1014715D02*
X845442Y1014456D01*
X843607Y1013696D01*
X842032Y1012488D01*
X841945Y1012400D01*
X837620D01*
Y1001820D01*
X839485D01*
Y970390D01*
X835550D01*
Y947310D01*
X858630D01*
Y970390D01*
X854695D01*
Y1001820D01*
X857200D01*
Y1012400D01*
X852855D01*
X852788Y1012488D01*
X851212Y1013696D01*
X849378Y1014456D01*
X847410Y1014715D01*
D02*
G37*
G36*
X718700Y1015310D02*
X698620D01*
Y1014875D01*
X689490D01*
Y1015310D01*
X669410D01*
Y1014875D01*
X659010D01*
Y1015310D01*
X638930D01*
Y999230D01*
X659010D01*
Y999665D01*
X669410D01*
Y999230D01*
X671845D01*
Y977148D01*
X671346Y976814D01*
X670121Y974982D01*
X669691Y972820D01*
X670121Y970658D01*
X671346Y968826D01*
X673178Y967601D01*
X674632Y967312D01*
X676038Y966234D01*
X677872Y965474D01*
X679840Y965215D01*
X681808Y965474D01*
X683618Y966224D01*
X745620D01*
X747327Y966448D01*
X748918Y967107D01*
X749002Y967171D01*
X753620D01*
X755782Y967601D01*
X757614Y968826D01*
X758839Y970658D01*
X759268Y972820D01*
X758839Y974982D01*
X757614Y976814D01*
X755782Y978039D01*
X753620Y978468D01*
X749002D01*
X748918Y978533D01*
X747327Y979192D01*
X745620Y979416D01*
X687055D01*
Y999230D01*
X689490D01*
Y999665D01*
X698620D01*
Y999230D01*
X718700D01*
Y1015310D01*
D02*
G37*
G36*
X629340Y978468D02*
X620340D01*
X618178Y978039D01*
X618059Y977959D01*
X599440D01*
X597473Y977568D01*
X595806Y976454D01*
X590961Y971609D01*
X557530D01*
X555564Y971218D01*
X553896Y970104D01*
X550246Y966454D01*
X549132Y964787D01*
X548741Y962820D01*
Y959577D01*
X545840D01*
Y939497D01*
X561920D01*
Y959577D01*
X559563D01*
X559077Y960750D01*
X559659Y961331D01*
X593090D01*
X595056Y961722D01*
X596724Y962836D01*
X601568Y967681D01*
X618059D01*
X618178Y967601D01*
X620340Y967171D01*
X629340D01*
X631502Y967601D01*
X633334Y968826D01*
X634558Y970658D01*
X634989Y972820D01*
X634558Y974982D01*
X633334Y976814D01*
X631502Y978039D01*
X629340Y978468D01*
D02*
G37*
G36*
X801620Y940368D02*
X785620D01*
X783458Y939939D01*
X781626Y938714D01*
X780401Y936882D01*
X779971Y934720D01*
X780401Y932558D01*
X781626Y930726D01*
X783458Y929501D01*
X785620Y929072D01*
X801620D01*
X803782Y929501D01*
X805614Y930726D01*
X806839Y932558D01*
X807269Y934720D01*
X806839Y936882D01*
X805614Y938714D01*
X803782Y939939D01*
X801620Y940368D01*
D02*
G37*
G36*
X753620D02*
X737620D01*
X735458Y939939D01*
X733626Y938714D01*
X732401Y936882D01*
X731972Y934720D01*
X732401Y932558D01*
X733626Y930726D01*
X735458Y929501D01*
X737620Y929072D01*
X753620D01*
X755782Y929501D01*
X757614Y930726D01*
X758839Y932558D01*
X759268Y934720D01*
X758839Y936882D01*
X757614Y938714D01*
X755782Y939939D01*
X753620Y940368D01*
D02*
G37*
G36*
X684340Y953068D02*
X675340D01*
X673178Y952639D01*
X673059Y952559D01*
X660400D01*
X658434Y952168D01*
X656766Y951054D01*
X645336Y939624D01*
X644222Y937956D01*
X643831Y935990D01*
Y895284D01*
X642616Y894916D01*
X642444Y895174D01*
X637364Y900254D01*
X635696Y901368D01*
X633730Y901759D01*
X631621D01*
X631502Y901839D01*
X629340Y902269D01*
X620340D01*
X618178Y901839D01*
X616346Y900614D01*
X615121Y898782D01*
X614692Y896620D01*
X615121Y894458D01*
X616346Y892626D01*
X618178Y891401D01*
X620340Y890972D01*
X629340D01*
X631502Y891401D01*
X631609Y891473D01*
X633162Y889921D01*
X632976Y888664D01*
X632551Y888437D01*
X631502Y889139D01*
X629340Y889568D01*
X620340D01*
X618178Y889139D01*
X616346Y887914D01*
X615121Y886082D01*
X614692Y883920D01*
X615121Y881758D01*
X616346Y879926D01*
X617161Y879381D01*
Y836930D01*
X617161Y836930D01*
X617161D01*
X617552Y834964D01*
X618666Y833296D01*
X627849Y824114D01*
X627567Y823432D01*
X627170Y820420D01*
X627567Y817408D01*
X628730Y814600D01*
X630580Y812190D01*
X632990Y810340D01*
X635798Y809177D01*
X638810Y808781D01*
X641823Y809177D01*
X644630Y810340D01*
X647040Y812190D01*
X648890Y814600D01*
X650053Y817408D01*
X650450Y820420D01*
X650053Y823432D01*
X648890Y826240D01*
X647040Y828650D01*
X644630Y830500D01*
X641823Y831663D01*
X638810Y832060D01*
X635798Y831663D01*
X635116Y831381D01*
X630259Y836238D01*
X631096Y837193D01*
X632990Y835740D01*
X635798Y834577D01*
X638810Y834180D01*
X641823Y834577D01*
X644630Y835740D01*
X647040Y837590D01*
X648890Y840000D01*
X650053Y842807D01*
X650450Y845820D01*
X650053Y848832D01*
X648890Y851640D01*
X647437Y853533D01*
X648392Y854371D01*
X652670Y850093D01*
Y840050D01*
X658440Y834280D01*
X669980D01*
X675750Y840050D01*
Y851590D01*
X669980Y857360D01*
X659937D01*
X654109Y863188D01*
Y875616D01*
X655373Y875740D01*
X655652Y874333D01*
X656766Y872666D01*
X679391Y850042D01*
Y835248D01*
X672772Y828629D01*
X672440Y828650D01*
X670030Y830500D01*
X667223Y831663D01*
X664210Y832060D01*
X661198Y831663D01*
X658390Y830500D01*
X655980Y828650D01*
X654130Y826240D01*
X652967Y823432D01*
X652570Y820420D01*
X652967Y817408D01*
X654130Y814600D01*
X655980Y812190D01*
X658390Y810340D01*
X661198Y809177D01*
X664210Y808781D01*
X667223Y809177D01*
X670030Y810340D01*
X672440Y812190D01*
X674290Y814600D01*
X675093Y816539D01*
X675464Y816786D01*
X688164Y829486D01*
X689278Y831153D01*
X689669Y833120D01*
X689669Y833120D01*
X689669Y833120D01*
Y833120D01*
Y852170D01*
X689278Y854137D01*
X688164Y855804D01*
X665539Y878428D01*
Y927512D01*
X667608Y929581D01*
X673059D01*
X673178Y929501D01*
X675340Y929072D01*
X684340D01*
X686502Y929501D01*
X688334Y930726D01*
X689558Y932558D01*
X689988Y934720D01*
X689558Y936882D01*
X688334Y938714D01*
X686502Y939939D01*
X684340Y940368D01*
X675340D01*
X673178Y939939D01*
X673059Y939859D01*
X665480D01*
X663513Y939468D01*
X661846Y938354D01*
X656766Y933274D01*
X655652Y931607D01*
X655373Y930200D01*
X654109Y930324D01*
Y933861D01*
X662529Y942281D01*
X673059D01*
X673178Y942201D01*
X675340Y941771D01*
X684340D01*
X686502Y942201D01*
X688334Y943426D01*
X689558Y945258D01*
X689988Y947420D01*
X689558Y949582D01*
X688334Y951414D01*
X686502Y952639D01*
X684340Y953068D01*
D02*
G37*
G36*
X581920Y959577D02*
X565840D01*
Y939497D01*
X581920D01*
Y942281D01*
X618059D01*
X618178Y942201D01*
X620340Y941771D01*
X629340D01*
X631502Y942201D01*
X633334Y943426D01*
X634558Y945258D01*
X634989Y947420D01*
X634558Y949582D01*
X633334Y951414D01*
X631502Y952639D01*
X629340Y953068D01*
X620340D01*
X618178Y952639D01*
X618059Y952559D01*
X581920D01*
Y959577D01*
D02*
G37*
%LPD*%
D10*
X793620Y934720D02*
D03*
Y947420D02*
D03*
Y960120D02*
D03*
Y972820D02*
D03*
X745620Y934720D02*
D03*
Y947420D02*
D03*
Y960120D02*
D03*
Y972820D02*
D03*
D11*
X823910Y1007110D02*
D03*
X847410D02*
D03*
D12*
X708660Y1027270D02*
D03*
Y1007270D02*
D03*
X679450Y1027270D02*
D03*
Y1007270D02*
D03*
X756920Y1027270D02*
D03*
Y1007270D02*
D03*
X784860Y1027270D02*
D03*
Y1007270D02*
D03*
X648970D02*
D03*
Y1027270D02*
D03*
X869950Y802800D02*
D03*
Y822800D02*
D03*
X796290Y802800D02*
D03*
Y822800D02*
D03*
D13*
X679840Y883920D02*
D03*
Y896620D02*
D03*
Y909320D02*
D03*
Y922020D02*
D03*
Y934720D02*
D03*
Y947420D02*
D03*
Y960120D02*
D03*
Y972820D02*
D03*
X624840Y883920D02*
D03*
Y896620D02*
D03*
Y909320D02*
D03*
Y922020D02*
D03*
Y934720D02*
D03*
Y947420D02*
D03*
Y960120D02*
D03*
Y972820D02*
D03*
D14*
X573880Y949537D02*
D03*
X553880D02*
D03*
X573880Y985520D02*
D03*
X553880D02*
D03*
Y913553D02*
D03*
X573880D02*
D03*
Y877570D02*
D03*
X553880D02*
D03*
D15*
X660400Y929640D02*
X665480Y934720D01*
X660400Y876300D02*
Y929640D01*
Y876300D02*
X684530Y852170D01*
X622300Y881380D02*
X624840Y883920D01*
X622300Y836930D02*
Y881380D01*
Y836930D02*
X638810Y820420D01*
X833120Y848360D02*
X849630D01*
X854710Y853440D01*
Y887730D01*
X831850Y910590D02*
X854710Y887730D01*
X737870Y910590D02*
X831850D01*
X726440Y922020D02*
X737870Y910590D01*
X679840Y922020D02*
X726440D01*
X793750Y873760D02*
X833120D01*
X770890Y896620D02*
X793750Y873760D01*
X731520Y896620D02*
X770890D01*
X718820Y909320D02*
X731520Y896620D01*
X679840Y909320D02*
X718820D01*
X728980Y848360D02*
X758190D01*
X693420Y883920D02*
X728980Y848360D01*
X679840Y883920D02*
X693420D01*
X679840Y896620D02*
X708660D01*
X731520Y873760D01*
X758190D01*
X665480Y934720D02*
X679840D01*
X684530Y833120D02*
Y852170D01*
X671830Y820420D02*
X684530Y833120D01*
X664210Y820420D02*
X671830D01*
X660400Y947420D02*
X679840D01*
X648970Y935990D02*
X660400Y947420D01*
X648970Y861060D02*
Y935990D01*
Y861060D02*
X664210Y845820D01*
X624840Y896620D02*
X633730D01*
X638810Y891540D01*
Y845820D02*
Y891540D01*
X573880Y877570D02*
X584200D01*
X615950Y909320D01*
X624840D01*
X573880Y913553D02*
X599863D01*
X608330Y922020D01*
X624840D01*
X553880Y913553D02*
Y922180D01*
X561340Y929640D01*
X595630D01*
X600710Y934720D01*
X624840D01*
X575997Y947420D02*
X624840D01*
X573880Y949537D02*
X575997Y947420D01*
X553880Y949537D02*
Y962820D01*
X557530Y966470D01*
X593090D01*
X599440Y972820D01*
X624840D01*
X573880Y985520D02*
X636270D01*
X645160Y976630D01*
Y967740D02*
Y976630D01*
X637540Y960120D02*
X645160Y967740D01*
X624840Y960120D02*
X637540D01*
D16*
X679840Y972820D02*
X745620D01*
X796290Y822800D02*
X869950D01*
X757080Y1007110D02*
X793750D01*
X758350Y822800D02*
X796290D01*
X758190Y822960D02*
X758350Y822800D01*
X869950D02*
X881380Y834230D01*
Y1013460D01*
X859790Y1035050D02*
X881380Y1013460D01*
X834390Y1035050D02*
X859790D01*
X823910Y1024570D02*
X834390Y1035050D01*
X823910Y1007110D02*
Y1024570D01*
X793620Y1006980D02*
X793750Y1007110D01*
X823910D01*
X793620Y972820D02*
Y1006980D01*
X756920Y1007270D02*
X757080Y1007110D01*
D17*
X847090Y1006790D02*
X847410Y1007110D01*
X847090Y958850D02*
Y1006790D01*
X679450Y973210D02*
X679840Y972820D01*
X679450Y973210D02*
Y1007270D01*
X708660D01*
X648970D02*
X679450D01*
D18*
X545937Y805180D02*
X539272D01*
X535940Y808512D01*
Y815177D01*
X539272Y818509D01*
X545937D01*
X549269Y815177D01*
Y811844D01*
X535940D01*
X555934Y798515D02*
Y818509D01*
X565930D01*
X569263Y815177D01*
Y808512D01*
X565930Y805180D01*
X555934D01*
X579259D02*
Y821841D01*
Y815177D01*
X575927D01*
X582592D01*
X579259D01*
Y821841D01*
X582592Y825174D01*
D19*
X847090Y958850D02*
D03*
X758190Y797560D02*
D03*
X833120D02*
D03*
D20*
X847090Y933450D02*
D03*
X664210Y820420D02*
D03*
Y795020D02*
D03*
X638810Y845820D02*
D03*
Y820420D02*
D03*
Y795020D02*
D03*
X758190Y873760D02*
D03*
Y848360D02*
D03*
Y822960D02*
D03*
X833120Y873760D02*
D03*
Y848360D02*
D03*
Y822960D02*
D03*
D21*
X664210Y845820D02*
D03*
M02*
